# xmcd
#
# Track frame offsets:
#	150
#	19793
#	42887
#	59157
#	77946
#	97107
#	115205
#	130538
#	149355
#	161473
#	182041
#	199233
#	217570
#	242086
#	258581
#	275501
#	294318
#
# Disc length: 4115 seconds
#
# Revision: 1
# Processed by: cddbd v1.5.1PL0 Copyright (c) Steve Scherf et al.
# Submitted via: audiograbber 1.83.01
#
DISCID=f9101111
DTITLE=Zeca Pagodinho - Balas
DYEAR=2004
DGENRE=Pagode
TTITLE0=Verdade
TTITLE1=Samba pras moças
TTITLE2=Feira de acari
TTITLE3=Água da minha sede
TTITLE4=Já mandei botar Dendê
TTITLE5=Lama nas ruas
TTITLE6=Posso até me apaixonar
TTITLE7=Cabocla Jurema
TTITLE8=Jura
TTITLE9=Vai vadiar
TTITLE10=Pra você, menina
TTITLE11=Faixa amarela
TTITLE12=Ainda é tempo pra ser feliz
TTITLE13=Prova de amor
TTITLE14=Seu balancê
TTITLE15=Vacilão
TTITLE16=Maneco Telecoteco
EXTD=
EXTT0=
EXTT1=
EXTT2=
EXTT3=
EXTT4=
EXTT5=
EXTT6=
EXTT7=
EXTT8=
EXTT9=
EXTT10=
EXTT11=
EXTT12=
EXTT13=
EXTT14=
EXTT15=
EXTT16=
PLAYORDER=
